<?xml version="1.0" encoding="utf-8"?>
<!-- Generator: Adobe Illustrator 25.2.0, SVG Export Plug-In . SVG Version: 6.00 Build 0)  -->
<svg version="1.1" id="Layer_1" xmlns="http://www.w3.org/2000/svg" xmlns:xlink="http://www.w3.org/1999/xlink" x="0px" y="0px"
	 viewBox="0 0 279.4 60" style="enable-background:new 0 0 279.4 60;" xml:space="preserve">
<g id="guides">
</g>
<g id="vectors">
	<g>
		<g>
			<path d="M5,60c-0.4,0-0.8,0-1.2-0.1c-2.6-0.6-4.3-3.3-3.6-5.9L12.1,4.7c0.5-2.2,2.5-3.8,4.8-3.8h13.4c2.3,0,4.3,1.6,4.8,3.8
				l10.7,44.6h7.8V5.8c0-2.7,2.2-4.9,4.9-4.9h24.6c2.7,0,4.9,2.2,4.9,4.9v22.5l11.4,21h4.7V5.8c0-2.7,2.2-4.9,4.9-4.9h24.6
				c2.7,0,4.9,2.2,4.9,4.9v22.5l11.4,21h33.8V20.6c0-2.7,2.2-4.9,4.9-4.9s4.9,2.2,4.9,4.9v33.6c0,2.7-2.2,4.9-4.9,4.9H147
				c-1.8,0-3.5-1-4.3-2.6l-13.4-24.6c-0.4-0.7-0.6-1.5-0.6-2.4V10.7h-14.8v43.4c0,2.7-2.2,4.9-4.9,4.9H96.5c-1.8,0-3.5-1-4.3-2.6
				L78.8,31.8c-0.4-0.7-0.6-1.5-0.6-2.4V10.7H63.4v43.4c0,2.7-2.2,4.9-4.9,4.9H41.9c-2.3,0-4.3-1.6-4.8-3.8L26.4,10.7h-5.7L9.8,56.2
				C9.3,58.5,7.3,60,5,60z"/>
			<path d="M264.9,59.1h-10.7c-2.4,0-4.4-1.7-4.8-4l-8.6-44.4h-1.3l-8.6,44.4c-0.5,2.3-2.5,4-4.8,4h-10.7c-2.4,0-4.4-1.7-4.8-4
				L202,10.7h-38v28.7c0,2.7-2.2,4.9-4.9,4.9s-4.9-2.2-4.9-4.9V5.8c0-2.7,2.2-4.9,4.9-4.9h47c2.4,0,4.4,1.7,4.8,4l8.6,44.4h2.6
				l8.6-44.4c0.5-2.3,2.5-4,4.8-4h9.4c2.4,0,4.4,1.7,4.8,4l8.6,44.4h2.6L269.7,4c0.5-2.7,3.1-4.4,5.8-3.9c2.7,0.5,4.4,3.1,3.9,5.8
				l-9.6,49.2C269.3,57.4,267.3,59.1,264.9,59.1z"/>
		</g>
	</g>
</g>
</svg>
